<?xml version="1.0"?><svg width="100%" height="100%" viewBox="0 0 16503 6930" version="1.1" xmlns="http://www.w3.org/2000/svg" xmlns:xlink="http://www.w3.org/1999/xlink" xml:space="preserve" xmlns:serif="http://www.serif.com/" style="fill-rule:evenodd;clip-rule:evenodd;stroke-linejoin:round;stroke-miterlimit:2;"><path d="M16078.3,1504.97c-196.497,0 -358.112,-160.546 -358.112,-358.099c0,-282.942 332.435,-490.325 623.425,-256.888c220.82,293.073 13.398,614.987 -265.313,614.987m310.82,-48.294c346.993,-451.237 -167.994,-968.515 -621.914,-620.195c-347.187,455.143 171.732,968.841 621.745,620.364c0.065,-0.052 0.13,-0.117 0.169,-0.169" style="fill:#FFFFFF;fill-rule:nonzero;"></path><path d="M15966.2,1124.12l144.232,0c55.52,0 85.091,-27.369 85.091,-79.739c-0,-63.985 -41.302,-76.459 -86.901,-76.459l-142.422,0l-0,156.198Zm-87.24,-227.929l239.362,-0c108.464,-0 164.662,50.859 164.662,135.846c-0,95.3 -66.472,119.792 -82.5,125.768l-0,1.511c30.481,3.802 74.492,26.237 74.492,105.377c-0,58.008 8.008,111.315 27.318,131.758l-94.128,0c-12.982,-21.445 -12.982,-48.815 -12.982,-73.75c0,-91.654 -18.737,-132.174 -99.427,-132.174l-129.557,-0l-0,205.924l-87.24,0l0,-500.26Z" style="fill:#FFFFFF;fill-rule:nonzero;"></path><path d="M15266.7,2647.05c-92.553,-0 -176.967,-37.579 -239.037,-98.763c-60.95,-61.394 -99.323,-146.042 -99.323,-238.907c0,-93.802 38.373,-178.385 99.323,-240.169c62.07,-60.273 146.484,-97.865 239.037,-97.865c93.789,0 178.32,37.592 240.156,97.865l265.56,-265.391c-129.219,-128.945 -308.334,-209.023 -505.716,-209.023c-196.368,-0 -376.055,80.078 -504.493,209.023c-129.323,129.558 -209.114,308.555 -209.114,505.56c-0,196.771 79.791,375.482 209.114,503.894c128.438,129.739 308.125,208.984 504.493,208.984c197.382,-0 376.497,-79.245 505.716,-208.984l-265.56,-264.987c-61.836,61.184 -146.367,98.763 -240.156,98.763" style="fill:#FFFFFF;fill-rule:nonzero;"></path><path d="M11922.9,1803.82c-129.114,-128.945 -307.878,-209.023 -505.169,-209.023c-197.044,-0 -375.469,80.078 -505.026,209.023c-129.219,129.558 -208.008,308.555 -208.008,505.56c-0,98.125 19.193,191.914 55.521,278.008c35.664,84.596 87.812,161.458 152.487,225.886c64.661,65.247 142.187,117.161 226.732,153.046c85.989,36.459 180.234,55.938 278.294,55.938c98.984,-0 192.096,-19.479 278.333,-55.938l-146.497,-345.507c-40.638,16.809 -85.091,26.237 -131.836,26.237c-46.589,-0 -90.508,-9.428 -131.797,-26.237c-40.078,-17.383 -76.302,-41.927 -107.331,-72.526c-30.82,-30.86 -55.091,-66.524 -72.799,-108.06c-17.383,-39.896 -26.42,-83.855 -26.42,-130.847c0,-93.802 38.152,-178.385 99.219,-240.169c61.276,-60.273 145.469,-97.852 239.128,-97.852c93.242,0 178.333,37.579 239.726,97.852c60.938,61.784 99.193,146.367 99.193,240.169l0,695.313l375.156,-0l0,-695.313c0,-197.005 -79.674,-376.002 -208.906,-505.56" style="fill:#FFFFFF;fill-rule:nonzero;"></path><path d="M10526.9,2327.09c0,-196.836 -79.348,-375.377 -208.789,-504.427c-129.557,-129.961 -307.877,-209.466 -505.143,-209.466l-637.213,0l-0,1391.5l375.82,0l-0,-1016.52l261.393,-0c93.216,-0 178.307,38.32 239.245,100.156c61.393,61.797 98.867,145.482 98.867,238.763l0.677,0l0,677.604l375.938,0l-0,-677.604l-0.795,0Z" style="fill:#FFFFFF;fill-rule:nonzero;"></path><path d="M13259.9,2548.29c-61.615,61.172 -146.706,98.763 -240.157,98.763c-93.69,-0 -177.648,-37.591 -239.51,-98.763c-60.599,-61.393 -99.297,-146.042 -99.297,-238.92c0,-93.789 38.698,-178.372 99.297,-240.169c61.862,-60.26 145.82,-97.851 239.51,-97.851c93.451,-0 178.542,37.591 240.157,97.851c60.937,61.797 98.294,146.38 98.294,240.169c-0,92.878 -37.357,177.527 -98.294,238.92m265.781,-744.466c-130.352,-128.946 -309.128,-209.024 -505.938,-209.024c-196.945,0 -375.617,80.078 -505.174,209.024c-128.542,129.544 -208.333,308.541 -208.333,505.546c-0,196.771 79.791,375.482 208.333,503.907c129.557,129.739 308.229,208.971 505.174,208.971c122.331,0 238.243,-30.312 338.451,-84.987l-0,48.008c-0,93.971 -37.357,177.76 -98.294,239.101c-61.615,62.188 -146.706,99.714 -240.157,99.714c-93.69,0 -177.648,-37.526 -239.51,-99.714l-265.664,265.625c129.557,130.235 308.229,208.946 505.174,208.946c196.81,-0 375.586,-78.711 505.938,-208.946c129.232,-129.062 208.568,-307.044 208.568,-504.726l-0,-675.899c-0,-197.005 -79.336,-376.002 -208.568,-505.546" style="fill:#FFFFFF;fill-rule:nonzero;"></path><rect x="13988.9" y="1613.2" width="375.82" height="1391.5" style="fill:#FFFFFF;"></rect><path d="M14176.7,1456.83c159.908,0 277.851,-182.916 152.76,-353.606c-169.154,-131.498 -358.398,-14.284 -358.398,148.19c-0,113.945 92.317,205.416 205.638,205.416" style="fill:#FFFFFF;fill-rule:nonzero;"></path><path d="M8988.48,1335.27l0,-363.399l-1308.94,0l-0,1355.22c-0,197.213 79.909,375.638 209.466,504.531c128.438,129.948 307.096,208.958 504.141,208.958l595.338,0l0,-363.02l-595.338,-0c-92.878,-0 -177.865,-37.514 -239.362,-98.685c-60.834,-61.459 -98.867,-145.651 -98.867,-239.662l-0,-191.12l786.289,0l-0,-375.651l-786.289,0l-0,-437.174l933.567,-0Z" style="fill:#FFFFFF;fill-rule:nonzero;"></path><path d="M7679.53,4045.86l567.63,-0l0,168.086l-374.934,-0l-0,193.906l337.317,0l0,131.628l-337.317,-0l-0,203.333l387.864,0l0,168.034l-580.56,-0l0,-864.987Z" style="fill:#FFFFFF;fill-rule:nonzero;"></path><path d="M8802.8,4853.28c-54.05,45.833 -112.826,71.64 -179.818,71.64c-151.575,0 -239.739,-77.5 -239.739,-285.559l-0,-366.641l185.69,-0l-0,344.336c-0,102.239 41.172,131.628 106.953,131.628c39.974,-0 75.221,-10.586 112.825,-36.472l0,-439.492l185.677,-0l0,638.125l-130.416,-0l-41.172,-57.565Z" style="fill:#FFFFFF;fill-rule:nonzero;"></path><path d="M9304.38,4506.59l0,404.258l-185.677,-0l0,-638.125l139.844,-0l38.815,82.226c57.565,-69.349 129.271,-95.169 209.206,-95.169l-0,195.052c-69.349,1.211 -142.201,21.159 -202.188,51.758" style="fill:#FFFFFF;fill-rule:nonzero;"></path><path d="M10033,4590.03c-0,-114.037 -59.987,-181.029 -145.781,-181.029c-86.941,0 -145.717,66.992 -145.717,181.029c0,121.041 61.133,185.677 145.717,185.677c87.005,-0 145.781,-65.847 145.781,-185.677m-478.386,3.502c0,-197.409 123.412,-336.107 332.605,-336.107c211.562,0 331.458,130.482 331.458,333.75c-0,197.474 -124.609,336.12 -333.815,336.12c-210.352,0 -330.248,-130.416 -330.248,-333.763" style="fill:#FFFFFF;fill-rule:nonzero;"></path><path d="M10508.7,4454.83l0,290.352c31.68,17.591 61.068,25.807 106.901,25.807c102.24,-0 159.857,-63.425 159.857,-177.461c-0,-111.602 -57.617,-177.448 -148.073,-177.448c-52.904,0 -83.437,9.427 -118.685,38.75m0,456.016l0,226.849l-185.742,-0l-0,-864.974l117.539,-0l31.745,46.979c50.547,-39.974 109.31,-62.279 191.536,-62.279c175.104,0 299.727,108.112 299.727,334.961c-0,207.995 -129.271,333.763 -338.477,333.763c-42.317,0 -81.08,-4.726 -116.328,-15.299" style="fill:#FFFFFF;fill-rule:nonzero;"></path><path d="M11217.2,4527.75l262.11,-0c-14.154,-85.795 -58.777,-126.98 -129.336,-126.98c-59.922,0 -117.474,34.102 -132.774,126.98m145.716,397.174c-185.677,0 -334.909,-94.01 -334.909,-339.609c0,-228.008 144.506,-327.891 311.381,-327.891c199.843,0 290.351,138.698 290.351,364.349l-413.685,0c12.878,117.474 83.438,152.721 175.104,152.721c76.355,0 143.347,-17.591 198.62,-51.692l-25.885,151.64c-50.547,34.037 -115.182,50.482 -200.977,50.482" style="fill:#FFFFFF;fill-rule:nonzero;"></path><path d="M11972.6,4795.66c42.331,0 89.297,-16.445 121.041,-42.265l0,-142.201c-157.5,16.446 -213.854,51.693 -213.854,111.615c0,48.177 29.323,72.851 92.813,72.851m138.698,45.834c-43.464,50.547 -108.164,82.291 -195.104,82.291c-122.201,0 -215.066,-55.273 -215.066,-185.69c0,-128.112 105.743,-195.104 389.011,-211.549c-14.089,-74.011 -70.495,-99.883 -142.201,-99.883c-71.718,0 -142.213,22.305 -204.492,66.992l30.534,-182.174c58.776,-35.261 128.125,-52.917 203.333,-52.917c179.818,0 302.019,77.578 302.019,293.854l-0,358.425l-133.985,-0l-34.049,-69.349Z" style="fill:#FFFFFF;fill-rule:nonzero;"></path><path d="M12603.6,4471.34l0,439.505l-185.742,0l0,-638.125l130.482,0l41.107,57.552c54.062,-45.82 112.825,-71.705 179.817,-71.705c151.641,-0 239.736,77.578 239.736,285.625l0,366.653l-185.686,0l-0,-344.336c-0,-102.239 -41.107,-131.627 -106.888,-131.627c-39.974,-0 -75.221,10.573 -112.826,36.458" style="fill:#FFFFFF;fill-rule:nonzero;"></path><path d="M7679.53,5832.3l0,-506.563l192.696,0l-0,502.995c-0,158.711 71.705,192.76 170.442,192.76c106.966,0 162.162,-46.979 162.162,-192.76l-0,-502.995l193.906,0l-0,506.563c-0,264.401 -115.182,374.87 -365.495,374.87c-232.669,-0 -353.711,-95.17 -353.711,-374.87" style="fill:#FFFFFF;fill-rule:nonzero;"></path><path d="M8734.59,5751.22l0,439.505l-185.742,0l0,-638.125l130.482,0l41.107,57.552c54.062,-45.82 112.825,-71.705 179.818,-71.705c151.64,-0 239.739,77.578 239.739,285.625l0,366.653l-185.69,0l-0,-344.336c-0,-102.239 -41.107,-131.627 -106.888,-131.627c-39.974,-0 -75.221,10.573 -112.826,36.458" style="fill:#FFFFFF;fill-rule:nonzero;"></path><rect x="9276.71" y="5255.24" width="198.555" height="179.818" style="fill:#FFFFFF;"></rect><rect x="9283.16" y="5552.6" width="185.677" height="638.125" style="fill:#FFFFFF;"></rect><path d="M10056.5,5869.91c-0,-114.037 -59.987,-181.029 -145.781,-181.029c-86.94,0 -145.717,66.992 -145.717,181.029c0,121.042 61.133,185.677 145.717,185.677c87.005,-0 145.781,-65.846 145.781,-185.677m-478.32,3.502c-0,-197.408 123.346,-336.106 332.539,-336.106c211.562,-0 331.458,130.481 331.458,333.75c-0,197.474 -124.609,336.119 -333.815,336.119c-210.352,0 -330.182,-130.416 -330.182,-333.763" style="fill:#FFFFFF;fill-rule:nonzero;"></path><path d="M10532.1,5751.22l0,439.505l-185.677,0l0,-638.125l130.482,0l41.107,57.552c54.049,-45.82 112.825,-71.705 179.818,-71.705c151.64,-0 239.739,77.578 239.739,285.625l0,366.653l-185.69,0l0,-344.336c0,-102.239 -41.107,-131.627 -106.953,-131.627c-39.909,-0 -75.221,10.573 -112.826,36.458" style="fill:#FFFFFF;fill-rule:nonzero;"></path><path d="M3594.93,438.372l451.302,0l-363.75,283.321l141.354,449.466l-362.331,-276.875l-362.252,276.875l142.799,-449.466l-366.602,-283.321l449.753,0l136.302,-438.372l133.425,438.372Z" style="fill:#FFFFFF;fill-rule:nonzero;"></path><path d="M3610.81,6224.13l451.901,-0l-363.685,273.268l141.289,431.94l-362.265,-266.172l-362.305,266.172l142.734,-431.94l-367.252,-273.268l450.52,-0l136.303,-421.745l132.76,421.745Z" style="fill:#FFFFFF;fill-rule:nonzero;"></path><path d="M5041.99,5841.01l452.018,0l-363.763,272.5l141.367,432.709l-362.33,-266.954l-362.266,266.954l142.747,-432.709l-367.304,-272.5l450.52,0l136.303,-421.849l132.708,421.849Z" style="fill:#FFFFFF;fill-rule:nonzero;"></path><path d="M5041.99,824.324l452.018,0l-363.763,272.604l141.367,432.605l-362.33,-266.498l-362.266,266.498l142.747,-432.605l-367.304,-272.604l450.52,0l136.303,-421.784l132.708,421.784Z" style="fill:#FFFFFF;fill-rule:nonzero;"></path><path d="M6104.58,1886.81l451.133,-0l-363.711,272.278l141.367,432.93l-362.265,-266.51l-361.589,266.51l142.735,-432.93l-367.318,-272.278l449.805,-0l136.367,-421.849l133.476,421.849Z" style="fill:#FFFFFF;fill-rule:nonzero;"></path><path d="M6104.58,4792.94l451.133,0l-363.711,273.386l141.367,432.5l-362.265,-266.953l-361.589,266.953l142.735,-432.5l-367.318,-273.386l449.805,0l136.367,-421.849l133.476,421.849Z" style="fill:#FFFFFF;fill-rule:nonzero;"></path><path d="M6502.68,3317.71l452.019,-0l-363.803,272.721l141.237,432.721l-362.252,-266.953l-362.266,266.953l142.787,-432.721l-367.305,-272.721l449.857,-0l136.927,-421.511l132.799,421.511Z" style="fill:#FFFFFF;fill-rule:nonzero;"></path><path d="M2135.8,827.88l451.198,0l-363.711,272.995l141.341,432.604l-362.304,-266.888l-362.318,266.888l142.851,-432.604l-366.64,-272.995l449.844,0l136.263,-421.784l133.476,421.784Z" style="fill:#FFFFFF;fill-rule:nonzero;"></path><path d="M1102.71,1890.36l451.966,0l-363.75,272.604l140.625,432.67l-361.601,-266.576l-362.253,266.576l142.409,-432.67l-366.979,-272.604l450.52,0l136.303,-421.784l132.76,421.784Z" style="fill:#FFFFFF;fill-rule:nonzero;"></path><path d="M719.258,3321.27l451.64,-0l-363.776,272.825l141.316,432.604l-362.266,-266.172l-362.331,266.172l142.813,-432.604l-366.654,-272.825l449.857,-0l136.315,-421.459l133.086,421.459Z" style="fill:#FFFFFF;fill-rule:nonzero;"></path><path d="M1102.71,4796.49l451.966,-0l-363.75,273.281l140.625,432.604l-361.601,-266.732l-362.253,266.732l142.409,-432.604l-366.979,-273.281l450.52,-0l136.303,-421.172l132.76,421.172Z" style="fill:#FFFFFF;fill-rule:nonzero;"></path><path d="M2150.89,5844.55l451.185,0l-363.763,272.722l140.638,432.5l-361.589,-266.849l-362.266,266.849l142.8,-432.5l-366.589,-272.722l449.805,0l136.25,-421.848l133.529,421.848Z" style="fill:#FFFFFF;fill-rule:nonzero;"></path><path d="M2766.02,2502.56l-0,1857.81c59.427,-7.031 118.581,-12.916 177.031,-16.484l0,-1837.17c-62.5,0 -121.133,-1.731 -177.031,-4.153" style="fill:#FFFFFF;fill-rule:nonzero;"></path><path d="M4122.7,4723.4c-551.498,-118.02 -1056.76,-201.367 -1705.18,-13.802c286.133,243.907 656.537,391.732 1060.14,391.732c401.524,0 769.18,-145.664 1053.95,-386.458c-112.578,29.948 -246.198,36.81 -408.906,8.528" style="fill:#FFFFFF;fill-rule:nonzero;"></path><path d="M3477.68,5230.89c-973.542,0 -1765.35,-792.174 -1765.35,-1765.48c-0,-974.584 791.809,-1766.73 1765.35,-1766.73c973.685,-0 1765.74,792.148 1765.74,1766.73c0,973.307 -792.057,1765.48 -1765.74,1765.48m0,-3698.11c-1065.4,0 -1932.19,866.966 -1932.19,1932.63c-0,1064.62 866.783,1931.14 1932.19,1931.14c1065.34,0 1931.54,-866.523 1931.54,-1931.14c-0,-1065.66 -866.198,-1932.63 -1931.54,-1932.63" style="fill:#FFFFFF;fill-rule:nonzero;"></path><path d="M2636.52,2494.36c-153.112,-12.748 -284.779,-37.761 -416.901,-74.31c-235.99,284.349 -378.242,648.307 -378.242,1045.36c-0,385.573 134.661,740.743 359.362,1020.85c147.669,-48.594 293.32,-83.972 435.781,-107.383l-0,-1884.52Z" style="fill:#FFFFFF;fill-rule:nonzero;"></path><path d="M3477.66,1828.58c-387.916,0 -745.117,136.341 -1026.09,363.268c254.765,80.795 915.091,74.519 1268.18,-19.974c274.297,-254.726 659.739,234.974 714.453,377.292c47.266,116.367 14.909,253.945 -151.862,92.721c-258.802,-233.046 -390.794,-195.052 -909.01,-151.041l-0,727.513c196.51,-1.914 480.625,-33.047 546.653,-264.427c8.62,-27.071 38.307,-23.894 35.495,3.177c-35.104,280.091 -36.81,521.81 -0,727.916c2.812,25.99 -31.38,29.935 -39.023,3.034c-66.941,-231.445 -347.266,-256.614 -543.125,-258.19l-0,916.602c257.044,17.591 490.885,60.612 688.71,106.458c550.235,95.234 760.027,-98.346 784.532,-361.081c63.346,-536.992 -630.065,-450.091 -539.649,-157.76c215.339,156.38 -113.945,369.713 -209.127,93.542c-83.685,-240.013 99.101,-523.633 426.237,-524.818c319.531,-5.104 489.179,221.641 510.69,464.596c50.859,-158.281 78.828,-327.343 78.828,-501.992c-0,-902.292 -734.063,-1636.84 -1635.89,-1636.84" style="fill:#FFFFFF;fill-rule:nonzero;"></path></svg>